<?xml version="1.0" standalone="no"?>
<!DOCTYPE svg PUBLIC "-//W3C//DTD SVG 20010904//EN"
 "http://www.w3.org/TR/2001/REC-SVG-20010904/DTD/svg10.dtd">
<svg version="1.0" xmlns="http://www.w3.org/2000/svg"
 width="300.000000pt" height="300.000000pt" viewBox="0 0 300.000000 300.000000"
 preserveAspectRatio="xMidYMid meet">
<metadata>
Created by potrace 1.10, written by Peter Selinger 2001-2011
</metadata>
<g transform="translate(0.000000,300.000000) scale(0.100000,-0.100000)" stroke="none">
<path d="M1275 2954 c-641 -115 -1121 -610 -1222 -1259 -18 -121 -13 -337 12
-465 126 -645 648 -1119 1311 -1191 438 -47 929 147 1223 483 171 196 289 426
340 661 86 397 10 790 -220 1137 -85 128 -273 316 -398 399 -181 120 -385 203
-580 235 -117 20 -356 20 -466 0z m470 -37 c213 -41 391 -115 575 -240 103
-70 291 -262 365 -372 108 -163 199 -375 226 -531 5 -32 13 -77 17 -99 13 -72
5 -326 -12 -425 -10 -52 -33 -140 -52 -195 -19 -55 -35 -104 -37 -110 -1 -5
-27 -55 -56 -110 -107 -200 -272 -386 -450 -510 -52 -36 -99 -65 -104 -65 -5
0 -21 -8 -35 -18 -57 -39 -236 -109 -338 -133 -454 -104 -902 4 -1264 306
-102 85 -207 204 -275 310 -32 50 -115 208 -115 220 0 5 -7 23 -15 39 -22 42
-62 179 -79 275 -21 110 -21 348 0 466 33 188 125 419 228 572 169 253 429
455 718 560 102 36 135 44 303 69 22 4 42 8 44 10 9 9 286 -6 356 -19z"/>
<path d="M1455 2839 c-22 -16 -48 -36 -58 -44 -24 -21 -32 -19 -45 10 -16 35
-52 40 -135 20 -97 -23 -132 -34 -202 -70 -50 -25 -61 -35 -65 -60 -5 -28 -8
-30 -49 -31 -57 -1 -101 -45 -101 -100 0 -50 55 -104 107 -104 44 0 103 54
103 94 0 17 7 29 18 32 16 6 76 28 117 44 23 10 117 36 158 45 16 3 41 19 56
36 l27 29 11 -22 c6 -13 14 -37 17 -55 5 -30 3 -33 -27 -38 -233 -41 -339 -83
-353 -141 -4 -14 -4 -48 -1 -75 l6 -49 -37 28 c-61 47 -83 53 -128 33 -39 -18
-186 -155 -256 -239 -100 -121 -204 -376 -215 -525 l-6 -83 33 -28 34 -28 -32
-29 c-18 -17 -33 -38 -33 -47 -8 -118 42 -314 91 -355 18 -15 25 -29 20 -37
-17 -28 29 -100 65 -100 8 0 11 -7 8 -21 -8 -29 15 -66 48 -80 16 -6 29 -17
28 -23 -4 -32 4 -46 35 -65 18 -12 42 -21 53 -21 16 0 19 -5 16 -23 -7 -35 36
-69 97 -75 41 -4 48 -7 39 -18 -15 -18 11 -60 43 -69 13 -4 47 -23 76 -43 50
-34 58 -36 175 -46 156 -13 500 -12 640 1 96 9 113 13 151 40 24 17 54 34 67
38 29 9 80 55 73 66 -2 5 -19 -1 -37 -11 -22 -14 -50 -20 -92 -20 l-61 0 -12
60 c-9 40 -23 71 -42 94 l-30 34 100 83 101 84 -7 40 c-14 85 -53 225 -79 279
-37 78 -108 146 -203 194 -44 22 -85 41 -92 44 -8 2 2 32 34 96 51 102 54 119
27 153 -10 13 -20 47 -23 76 -7 71 -43 124 -105 154 -137 66 -299 -19 -311
-164 l-4 -54 -86 49 c-47 27 -113 63 -146 80 -34 17 -63 32 -65 34 -2 1 9 14
24 28 l27 25 -46 28 c-25 15 -46 32 -46 36 0 5 14 29 31 53 17 25 29 47 27 48
-27 20 -82 45 -87 41 -3 -4 -20 -30 -37 -58 l-30 -52 -55 -1 c-30 0 -75 -4
-101 -8 l-47 -7 30 -82 c27 -74 39 -93 75 -115 6 -4 14 -33 17 -64 l5 -57 -34
-7 c-24 -4 -34 -12 -34 -25 0 -11 -7 -19 -15 -19 -19 0 -85 -66 -85 -85 0 -8
-7 -15 -15 -15 -8 0 -15 -4 -15 -10 0 -6 -28 -10 -65 -10 -60 0 -66 2 -77 25
-21 46 32 266 94 390 69 136 187 283 305 376 64 51 65 52 101 39 28 -9 49 -29
88 -85 29 -40 48 -77 44 -82 -5 -4 46 -64 112 -133 l120 -124 -61 122 -62 123
53 24 c29 13 75 30 102 37 41 11 50 11 54 -1 2 -7 17 -28 32 -45 25 -28 34
-31 84 -31 47 0 59 4 85 29 17 17 31 36 31 44 0 18 42 12 121 -17 94 -36 94
-37 63 -105 -15 -33 -42 -86 -60 -119 -19 -32 -30 -57 -26 -55 5 2 55 54 111
116 57 61 108 112 113 112 5 0 7 8 4 18 -10 30 89 159 131 173 30 10 37 8 71
-17 107 -80 229 -219 299 -339 91 -156 161 -423 121 -463 -7 -7 -38 -12 -70
-12 -51 0 -58 2 -58 20 0 11 -7 20 -15 20 -8 0 -15 6 -15 13 0 19 -67 95 -90
102 -11 4 -20 15 -20 26 0 16 -7 19 -55 19 -42 0 -53 3 -49 14 7 17 50 37 68
30 20 -8 57 55 45 77 -12 23 -12 79 1 79 15 0 12 29 -7 61 -11 18 -26 29 -39
29 -13 0 -36 14 -52 30 -21 21 -40 30 -62 30 -22 0 -41 -9 -62 -30 -16 -16
-39 -30 -52 -30 -13 0 -28 -11 -39 -29 -19 -32 -22 -61 -7 -61 13 0 13 -63 0
-76 -14 -14 19 -74 41 -74 26 0 79 -30 79 -46 0 -8 5 -14 10 -14 6 0 10 -9 10
-20 0 -11 5 -20 10 -20 6 0 19 9 30 20 24 24 30 25 30 6 0 -19 -80 -50 -93
-37 -17 17 -21 14 -47 -35 -18 -33 -21 -48 -13 -51 15 -5 6 -94 -11 -105 -18
-12 34 -103 59 -103 28 -1 95 -36 95 -51 0 -14 46 -24 83 -17 15 3 27 11 27
18 0 8 15 23 34 34 19 12 46 37 60 56 26 33 30 35 90 35 79 0 96 -15 96 -86 0
-55 -31 -201 -53 -252 l-14 -33 -226 1 c-242 1 -234 2 -221 -48 l7 -23 208 3
208 3 -17 -29 -17 -29 -189 2 c-171 2 -188 1 -182 -14 3 -9 6 -26 6 -37 0 -19
5 -20 165 -16 91 1 165 0 165 -3 0 -3 -8 -13 -18 -22 -16 -14 -44 -17 -188
-17 l-170 0 -30 -31 -29 -30 178 3 c97 2 177 0 177 -3 0 -3 -8 -13 -18 -22
-16 -15 -46 -17 -209 -17 -104 0 -192 -3 -196 -6 -3 -4 1 -17 10 -30 15 -24
18 -24 167 -24 l151 0 -25 -20 c-22 -17 -41 -20 -142 -20 -123 0 -124 0 -112
-45 4 -18 12 -20 67 -17 34 2 71 7 82 12 11 5 36 11 55 15 43 7 83 39 85 67 1
14 13 24 38 33 44 15 78 53 71 78 -3 9 -1 17 5 17 22 0 72 53 70 74 -2 13 11
35 35 59 31 30 37 42 33 65 -4 21 0 32 19 47 32 26 70 141 86 257 11 86 11 87
-15 127 -15 23 -35 41 -44 41 -11 0 -3 11 23 34 36 31 38 36 38 87 -2 136 -74
332 -183 499 -48 74 -236 262 -286 287 -47 23 -66 20 -120 -16 l-41 -28 2 47
c3 50 -16 98 -44 115 -28 16 -123 54 -151 60 -63 13 -78 16 -111 21 -85 13
-82 11 -75 57 11 63 22 71 53 36 20 -21 44 -32 92 -43 36 -8 109 -29 162 -48
92 -31 97 -34 98 -61 0 -19 12 -41 34 -63 48 -48 95 -47 143 1 31 31 35 40 30
72 -9 51 -53 93 -105 100 -32 4 -42 10 -42 23 0 45 -146 114 -299 141 l-74 13
-28 -32 -28 -32 -44 30 c-24 16 -50 36 -57 45 -18 22 -40 18 -85 -16z m75 -24
c17 -27 28 -35 51 -35 34 0 37 -10 8 -36 -16 -14 -20 -28 -17 -56 4 -42 1 -44
-37 -26 -21 9 -32 8 -61 -6 l-36 -17 6 36 c6 29 2 41 -20 70 l-26 35 31 0 c26
0 36 7 52 35 12 19 22 35 24 35 2 0 13 -16 25 -35z m-197 -47 c7 -50 3 -58
-26 -58 -34 0 -165 -38 -230 -67 -31 -14 -59 -24 -60 -22 -2 2 -13 21 -25 42
l-22 38 48 20 c89 38 239 83 298 88 6 1 14 -18 17 -41z m457 22 c71 -17 234
-73 249 -86 2 -2 -4 -22 -14 -45 -21 -45 -17 -45 -110 -5 -33 14 -101 35 -151
47 l-91 21 8 36 c5 21 9 40 9 45 0 10 4 9 100 -13z m-837 -177 c50 -57 -6
-140 -76 -114 -24 9 -47 44 -47 70 0 5 9 20 21 35 24 31 77 36 102 9z m573 6
c3 -6 1 -16 -4 -21 -13 -13 -45 8 -36 23 7 12 31 11 40 -2z m636 -6 c36 -32
16 -105 -32 -114 -31 -6 -71 12 -80 37 -13 34 -13 38 11 68 24 31 72 35 101 9z
m-692 -96 c0 -69 -1 -74 -28 -89 -15 -9 -34 -28 -42 -43 -7 -14 -25 -28 -39
-31 -70 -14 -121 -29 -168 -50 l-52 -23 -36 57 c-43 69 -49 89 -38 133 9 32
15 36 93 62 98 34 196 55 263 56 l47 1 0 -73z m232 59 c81 -16 213 -59 234
-77 27 -22 17 -91 -22 -154 -19 -33 -37 -61 -38 -63 -2 -1 -27 9 -57 23 -30
13 -87 32 -126 41 -40 9 -73 21 -73 26 0 6 -16 26 -36 44 -34 32 -36 38 -37
104 l-2 70 42 0 c23 0 74 -6 115 -14z m-136 -193 c30 -32 54 -62 54 -67 0 -6
-19 -27 -42 -48 -64 -56 -110 -52 -163 17 l-27 37 58 59 c32 32 60 59 63 59 2
0 28 -26 57 -57z m-413 -130 c10 -3 15 -11 12 -17 -3 -6 -8 -19 -11 -28 -10
-27 -24 -21 -40 17 -18 44 -18 49 4 40 9 -4 25 -10 35 -12z m757 -2 c0 -10 -8
-29 -18 -41 l-18 -23 -22 37 c-21 36 -22 37 -2 31 11 -3 28 -2 37 4 24 14 23
14 23 -8z m-976 -169 c-21 -40 -17 -60 16 -94 17 -16 27 -34 24 -39 -3 -6 -7
-22 -9 -37 -3 -32 -38 -62 -72 -62 -28 0 -43 -13 -66 -55 l-16 -30 -1 35 c0
24 -10 47 -31 73 l-31 38 26 26 26 25 -20 28 c-24 34 -18 40 35 40 43 0 70 17
101 65 21 33 37 22 18 -13z m1274 -77 c36 -30 45 -69 27 -112 -16 -37 -41 -53
-85 -53 -44 0 -69 16 -85 53 -18 43 -9 82 27 112 38 32 78 32 116 0z m-1434
-47 c-8 -13 -26 -9 -40 10 -22 28 -16 34 15 16 17 -10 28 -21 25 -26z m810
-19 c23 -11 51 -35 63 -52 23 -35 43 -157 25 -157 -5 0 -12 7 -16 15 -3 8 -16
20 -30 26 -20 10 -30 8 -58 -12 -18 -13 -34 -27 -36 -31 -10 -22 -198 -53
-206 -34 -2 6 -5 1 -5 -12 -1 -13 -5 -20 -11 -17 -12 7 -6 62 14 132 19 66 33
93 64 118 60 47 132 56 196 24z m-451 -152 c98 -53 132 -76 129 -89 -2 -9 18
-57 43 -108 44 -87 48 -110 22 -110 -7 0 -40 -13 -75 -30 -81 -38 -171 -124
-206 -197 -27 -54 -86 -264 -86 -304 0 -12 37 -50 100 -101 l99 -82 -24 -26
c-30 -32 -45 -71 -45 -121 l0 -39 -65 0 c-63 0 -115 15 -115 32 0 6 29 8 65 6
66 -3 66 -3 74 27 l7 30 -123 5 c-99 4 -126 8 -140 23 -16 16 -10 17 128 17
133 0 146 2 162 20 10 12 15 25 12 30 -4 6 -86 10 -194 10 -182 0 -188 1 -209
22 l-21 23 177 -3 177 -3 -35 30 -35 30 -164 1 c-144 0 -165 2 -177 18 -7 9
-14 19 -14 22 0 3 71 3 159 1 l158 -3 5 31 c3 18 1 34 -4 37 -5 3 -88 4 -184
3 l-176 -2 -14 24 c-7 13 -13 26 -14 29 0 3 92 4 205 2 165 -3 205 -1 205 10
0 7 3 23 6 36 l7 23 -227 -3 -226 -3 -20 60 c-23 70 -50 203 -50 248 0 49 24
67 92 67 32 0 58 -4 58 -10 0 -5 6 -10 13 -10 7 0 23 -13 35 -30 12 -16 36
-37 52 -45 17 -9 30 -22 30 -29 0 -17 22 -26 66 -26 26 0 34 4 34 18 0 20 49
43 77 36 22 -6 69 61 55 79 -10 14 -8 93 3 119 10 26 -32 91 -56 85 -10 -3
-25 0 -33 7 -13 10 -13 19 1 80 l16 68 37 -6 c21 -3 46 -9 55 -12 15 -6 16 -2
10 37 -7 39 -6 42 8 30 9 -7 76 -45 150 -84z m506 -137 l1 -35 27 45 c32 55
32 55 39 47 8 -8 -103 -236 -129 -264 -41 -46 -123 -36 -159 19 -18 27 -68
163 -68 184 0 11 15 14 63 14 73 0 128 23 172 69 l30 32 12 -38 c6 -21 12 -54
12 -73z m-829 40 c0 -15 -7 -20 -25 -20 -29 0 -32 8 -7 26 24 19 32 17 32 -6z
m1506 -53 c69 -63 51 -168 -33 -204 -76 -31 -168 30 -168 112 0 110 121 165
201 92z m-1501 -13 c33 -15 65 -64 65 -99 0 -53 -55 -100 -117 -98 -82 2 -128
109 -72 169 42 45 74 52 124 28z m-185 -104 c0 -34 -7 -37 -36 -15 -19 15 -19
15 0 30 29 22 36 19 36 -15z m1800 20 c11 -7 12 -12 3 -21 -16 -16 -44 -4 -37
16 7 17 13 18 34 5z m-1039 -102 c9 -17 9 -24 -2 -32 -25 -19 -10 -63 36 -108
56 -54 74 -60 114 -41 39 19 101 90 101 115 0 27 -8 23 -56 -31 -25 -28 -54
-53 -64 -56 -24 -8 -63 20 -102 72 -31 40 -29 56 2 28 32 -29 126 -32 168 -5
18 11 31 24 28 29 -3 5 2 19 13 32 l18 23 74 -36 c95 -45 172 -115 209 -187
15 -31 41 -107 56 -169 l28 -112 -40 -38 c-67 -65 -134 -115 -134 -101 0 8 5
43 11 79 18 102 19 111 25 180 6 61 4 67 -19 89 l-26 23 -327 0 -328 1 -23
-27 c-28 -33 -29 -55 -2 -219 11 -71 19 -131 16 -133 -5 -5 -136 100 -155 124
-16 20 -11 64 22 178 48 163 104 234 241 303 44 22 85 41 92 41 7 0 18 -10 24
-22z m449 -293 c9 -11 6 -48 -15 -177 -14 -90 -28 -170 -31 -178 -3 -13 -43
-15 -291 -13 -158 1 -289 6 -290 10 -1 4 -14 84 -28 176 -20 130 -23 172 -14
183 17 21 651 21 669 -1z m-624 -395 c13 -13 557 -9 590 4 19 7 25 0 54 -57
17 -36 30 -75 28 -88 l-3 -24 -370 -2 c-243 -1 -374 2 -382 9 -19 16 -16 34
18 104 29 62 44 75 65 54z m784 -205 c0 -3 -16 -12 -36 -20 -54 -22 -864 -22
-918 0 -20 8 -36 17 -36 20 0 3 223 5 495 5 272 0 495 -2 495 -5z"/>
<path d="M491 1228 c2 -49 0 -48 246 -51 l231 -2 15 33 15 32 -254 0 c-197 0
-254 -3 -253 -12z"/>
<path d="M1483 1019 c-52 -19 -49 -102 4 -115 56 -14 100 43 70 90 -18 27 -44
36 -74 25z"/>
<path d="M680 2559 c-19 -12 -70 -56 -112 -98 -85 -84 -94 -108 -58 -153 24
-31 73 -53 94 -41 22 12 171 159 189 186 19 30 2 75 -41 106 -36 25 -30 25
-72 0z m72 -45 l26 -35 -96 -94 -96 -94 -33 25 c-18 14 -33 30 -33 37 0 12
187 197 199 197 3 -1 18 -17 33 -36z"/>
<path d="M2242 2537 c-18 -18 -32 -43 -32 -55 0 -14 31 -53 90 -112 87 -88
130 -117 153 -103 7 4 8 0 2 -13 -34 -83 6 -164 81 -164 31 0 33 -1 27 -33 -3
-22 3 -51 22 -92 14 -33 37 -98 51 -145 28 -100 51 -125 103 -116 18 3 45 16
58 28 22 20 24 29 19 68 -8 62 -31 132 -71 216 -36 76 -68 114 -97 114 -14 0
-16 5 -10 23 5 12 7 28 6 35 -1 6 -2 19 -3 28 0 8 -14 29 -30 45 -23 23 -39
29 -70 29 -46 0 -47 1 -25 35 13 19 13 28 3 47 -19 37 -57 79 -127 141 -78 68
-103 72 -150 24z m176 -99 c45 -45 82 -84 81 -87 0 -3 -15 -18 -34 -33 l-33
-28 -96 95 -97 95 27 35 c32 42 31 43 152 -77z m172 -198 c41 -41 12 -120 -45
-120 -31 0 -75 41 -75 70 0 29 44 70 75 70 14 0 34 -9 45 -20z m113 -217 c30
-66 87 -237 87 -263 0 -6 -75 -30 -94 -30 -3 0 -6 10 -6 21 0 29 -67 227 -90
266 l-18 31 36 26 c20 13 40 25 43 25 3 1 22 -34 42 -76z"/>
<path d="M414 2272 c-44 -35 -55 -85 -30 -133 12 -24 12 -25 -9 -21 -37 7 -63
-15 -94 -76 -35 -69 -81 -216 -81 -258 0 -36 24 -61 71 -74 52 -15 73 5 104
102 14 46 30 92 35 103 48 110 53 128 42 146 -8 12 -8 19 -2 20 5 1 15 3 20 4
6 1 17 3 25 4 8 0 29 14 46 29 68 60 25 172 -65 172 -24 0 -50 -8 -62 -18z
m106 -32 c41 -41 12 -120 -45 -120 -31 0 -75 41 -75 70 0 29 44 70 75 70 14 0
34 -9 45 -20z m-125 -171 c20 -12 34 -24 33 -28 -33 -64 -65 -144 -85 -217
l-26 -91 -44 10 c-29 7 -43 16 -43 26 0 56 100 321 121 321 4 0 24 -10 44 -21z"/>
<path d="M1843 1817 c-40 -22 -73 -44 -73 -49 0 -10 125 56 150 79 25 23 -2
12 -77 -30z"/>
<path d="M199 1605 c-82 -45 -77 -159 10 -195 63 -26 141 31 141 104 0 20 -12
40 -39 67 -42 42 -69 48 -112 24z m96 -45 c42 -46 10 -120 -51 -120 -35 0 -74
37 -74 70 0 10 9 29 21 44 26 33 77 36 104 6z"/>
<path d="M2735 1606 c-96 -42 -82 -166 21 -195 32 -9 43 -7 70 9 65 41 68 116
8 170 -38 33 -54 36 -99 16z m87 -43 c27 -24 24 -87 -4 -107 -34 -24 -73 -20
-97 10 -12 15 -21 34 -21 44 0 10 9 29 21 44 24 31 72 35 101 9z"/>
<path d="M2663 1228 c-11 -13 -25 -43 -32 -68 -7 -25 -18 -58 -26 -75 -33 -71
-65 -148 -65 -157 0 -5 -14 -23 -30 -40 -17 -16 -28 -33 -25 -38 2 -4 -11 -23
-30 -43 -19 -20 -35 -43 -35 -52 0 -8 -6 -15 -14 -15 -17 0 -66 -56 -66 -76 0
-8 -8 -14 -18 -14 -24 0 -62 -33 -62 -53 0 -10 -6 -14 -14 -11 -17 6 -58 -17
-103 -59 -17 -16 -36 -26 -42 -22 -6 3 -25 -8 -42 -25 -21 -21 -37 -29 -50
-25 -11 4 -31 -2 -48 -14 -16 -12 -35 -19 -43 -16 -24 9 -62 -40 -55 -72 18
-86 66 -145 104 -124 50 28 126 61 139 61 8 0 22 9 31 20 10 11 25 20 34 20
17 0 181 107 232 151 110 94 241 248 274 319 3 8 18 31 33 50 15 19 33 53 40
75 7 22 19 46 27 53 7 7 13 28 13 47 0 27 -5 36 -30 47 -39 17 -38 30 1 26 25
-2 36 3 52 24 24 32 15 48 -43 78 -20 10 -42 26 -49 34 -18 22 -34 20 -58 -6z
m44 -27 c-4 -16 3 -21 44 -31 32 -8 49 -17 49 -27 0 -16 -13 -15 -84 3 -22 5
-26 3 -26 -15 0 -23 -1 -24 -23 -15 -13 5 -13 11 1 55 9 28 22 49 30 49 9 0
13 -7 9 -19z m-43 -122 c-1 -8 -5 -22 -9 -31 -4 -11 -3 -18 5 -18 6 0 14 9 17
20 3 11 12 20 20 20 11 0 13 -7 8 -29 -8 -37 9 -48 23 -16 7 14 18 25 26 25
13 0 13 -5 -1 -37 -8 -21 -17 -40 -19 -42 -2 -2 -31 7 -64 19 -48 18 -60 26
-55 39 4 9 12 29 17 44 10 28 34 32 32 6z m-39 -98 c3 -5 1 -12 -5 -16 -15 -9
-12 -25 5 -25 8 0 15 7 15 15 0 8 7 15 15 15 11 0 14 -7 9 -25 -7 -29 10 -34
25 -7 7 13 13 14 21 6 10 -10 3 -39 -15 -62 -1 -1 -19 5 -41 14 -21 9 -49 20
-62 25 -22 8 -22 10 -7 39 16 30 29 38 40 21z m23 -109 c39 -11 20 -27 -28
-24 l-45 2 37 -20 c25 -13 35 -25 32 -35 -5 -12 -10 -13 -32 -1 -15 8 -44 21
-65 30 -34 14 -37 17 -25 36 10 16 23 20 58 19 25 -1 55 -4 68 -7z m-65 -104
c33 -8 37 -11 26 -24 -7 -8 -19 -12 -26 -9 -20 7 -45 -19 -31 -33 6 -6 8 -18
4 -28 -5 -14 -15 -7 -55 37 -71 78 -52 91 82 57z m-140 -64 c3 -4 -4 -15 -16
-25 -18 -14 -20 -21 -11 -36 13 -21 55 -24 62 -4 3 9 -1 11 -17 6 -25 -8 -29
16 -5 36 13 10 19 8 40 -15 22 -23 24 -29 12 -44 -20 -26 -31 -32 -59 -32 -56
0 -93 65 -59 105 13 15 42 20 53 9z m-72 -116 c32 -18 59 -39 59 -47 0 -8 -6
-11 -16 -7 -20 8 -44 -11 -44 -34 0 -10 -7 -20 -15 -24 -8 -3 -15 0 -15 7 0 7
-11 36 -25 65 -22 48 -25 72 -9 72 3 0 32 -15 65 -32z m-107 -62 c14 -19 33
-42 42 -51 12 -12 14 -19 5 -28 -8 -8 -20 -6 -47 7 -43 20 -52 17 -24 -9 23
-20 27 -45 7 -45 -14 0 -87 92 -87 110 0 15 26 12 60 -5 34 -18 40 -7 10 20
-18 17 -19 35 -1 35 5 0 20 -15 35 -34z m-64 -147 c0 -15 -22 -21 -30 -9 -10
16 -51 -9 -47 -29 1 -9 -6 -17 -15 -19 -14 -3 -18 3 -18 25 0 15 -5 45 -11 66
-8 28 -7 42 1 52 10 12 21 7 66 -32 30 -26 54 -50 54 -54z m-167 -10 c15 -34
24 -65 21 -70 -10 -17 -22 -9 -33 21 -13 39 -23 38 -21 -2 3 -53 1 -55 -25
-23 -25 30 -34 21 -15 -15 7 -14 6 -20 -7 -24 -19 -8 -15 -14 -42 63 -28 77
-15 97 30 47 l28 -31 1 42 c0 36 7 49 31 52 3 1 18 -27 32 -60z"/>
<path d="M2021 1228 c0 -7 4 -21 8 -31 6 -17 24 -18 246 -18 l240 0 6 31 6 30
-253 0 c-197 0 -254 -3 -253 -12z"/>
<path d="M284 1162 c-23 -9 -48 -27 -56 -40 -14 -22 -13 -30 4 -76 11 -28 21
-62 24 -76 3 -14 11 -36 19 -50 7 -14 23 -45 34 -69 12 -25 36 -63 55 -85 18
-23 37 -48 42 -57 11 -19 119 -143 153 -176 27 -26 34 -27 62 -13 15 9 26 6
53 -15 30 -22 38 -25 57 -15 16 9 20 9 14 0 -18 -30 -16 -76 4 -95 18 -15 25
-16 47 -7 33 16 33 15 27 -8 -6 -24 29 -60 58 -60 10 0 27 -9 38 -21 10 -11
25 -22 32 -23 8 -2 31 -10 51 -20 21 -9 46 -16 57 -16 11 0 37 -11 57 -25 20
-14 47 -25 59 -25 29 0 59 34 51 56 -4 10 3 35 16 60 19 36 20 44 8 59 -19 23
-81 47 -106 41 -12 -3 -27 0 -33 8 -7 8 -27 17 -46 20 -19 4 -35 11 -35 16 0
9 -35 24 -57 25 -6 0 -20 8 -30 18 -35 35 -125 97 -141 97 -8 0 -23 -7 -33
-16 -16 -14 -20 -14 -44 2 -22 15 -30 15 -47 5 -33 -21 -41 2 -13 39 14 19 25
40 25 47 0 7 -25 39 -55 70 -30 31 -57 64 -60 73 -3 9 -17 23 -30 30 -14 7
-25 19 -25 26 0 7 -20 53 -44 101 -24 48 -47 102 -50 118 -4 17 -15 45 -26 63
-22 37 -48 40 -116 14z m106 -82 c0 -28 -27 -45 -45 -30 -8 7 -15 9 -15 4 0
-5 -12 -15 -27 -21 -21 -10 -28 -10 -35 0 -12 19 -10 24 17 31 36 9 31 27 -6
24 -54 -5 -42 17 23 43 l63 24 13 -29 c6 -15 12 -36 12 -46z m40 -124 c-10
-10 -23 0 -33 28 -2 5 -9 6 -16 2 -9 -6 -9 -11 -1 -21 7 -8 8 -19 4 -26 -5 -8
-12 -5 -24 11 -21 28 -46 19 -28 -10 9 -15 10 -22 1 -31 -9 -9 -17 -1 -33 30
l-21 42 29 10 c15 5 44 17 63 27 l34 17 18 -33 c14 -26 16 -37 7 -46z m60 -86
c0 -16 -27 -12 -34 5 -11 29 -28 16 -21 -15 8 -36 -6 -39 -28 -7 -18 27 -36
14 -19 -14 12 -19 9 -39 -7 -39 -6 0 -41 63 -41 76 0 2 26 17 58 32 l57 28 18
-28 c9 -16 17 -33 17 -38z m55 -60 c7 -11 -85 -133 -94 -125 -3 3 -5 20 -6 38
0 27 -4 32 -24 32 -42 1 -35 23 11 35 24 6 54 15 68 20 34 12 38 12 45 0z m68
-90 c-4 -4 -30 -26 -56 -50 -38 -34 -50 -41 -60 -31 -17 18 92 114 111 99 7
-6 9 -14 5 -18z m44 -41 c7 -7 -1 -22 -31 -49 -40 -38 -40 -39 -21 -54 16 -12
17 -17 8 -27 -10 -10 -19 -7 -43 16 l-31 30 48 47 c53 52 54 53 70 37z m63
-134 c22 -26 -4 -43 -30 -20 -20 18 -18 35 4 35 8 0 19 -7 26 -15z m119 -12
c46 -30 56 -57 17 -47 -21 5 -28 0 -48 -35 -13 -22 -28 -41 -35 -41 -25 0 -23
21 7 62 27 37 29 44 16 54 -17 12 -21 34 -7 34 5 0 28 -12 50 -27z m95 -62 c9
-13 -58 -128 -71 -124 -19 7 -16 17 18 78 30 53 42 64 53 46z m80 -56 c-4 -8
-3 -26 0 -40 l6 -25 28 30 c19 22 31 27 41 21 13 -8 12 -15 -2 -48 -9 -21 -21
-51 -27 -67 -8 -22 -14 -26 -22 -18 -9 9 -9 18 0 37 14 30 -2 34 -18 5 -16
-31 -28 -24 -32 18 l-4 37 -12 -27 c-12 -28 -26 -36 -36 -19 -3 4 7 36 21 69
23 51 30 59 45 51 10 -5 15 -16 12 -24z m189 -51 c15 -3 27 -13 27 -21 0 -12
-8 -14 -35 -9 -28 6 -35 4 -35 -9 0 -8 9 -15 20 -15 12 0 20 -7 20 -16 0 -11
-8 -14 -27 -12 -37 4 -40 -18 -3 -25 18 -4 30 -13 30 -22 0 -8 -4 -15 -9 -15
-9 0 -74 21 -80 26 -2 2 5 33 15 69 14 48 23 64 34 60 8 -2 27 -7 43 -11z"/>
<path d="M1280 426 c74 -41 331 -47 433 -11 26 10 46 19 43 22 -2 3 -62 -1
-133 -7 -98 -10 -151 -10 -225 -1 -53 6 -107 11 -120 11 l-23 -1 25 -13z"/>
<path d="M1760 381 c-34 -19 -89 -31 -116 -26 -21 4 -39 -1 -64 -18 -34 -24
-35 -24 -61 -5 -22 16 -29 17 -52 7 -22 -10 -30 -10 -44 3 -24 20 -103 23
-128 4 -18 -13 -19 -17 -6 -48 7 -18 12 -48 12 -67 -1 -19 5 -41 15 -52 18
-21 49 -25 59 -9 9 14 43 12 47 -2 3 -9 39 -13 124 -14 106 -2 121 0 140 18
18 16 26 17 40 8 15 -8 32 -7 74 7 62 20 74 43 45 87 -9 14 -15 36 -13 49 3
26 -26 67 -46 66 -6 0 -18 -4 -26 -8z m33 -57 l-18 -36 33 -26 c18 -15 32 -30
32 -34 0 -16 -35 -7 -58 15 l-25 22 6 -32 c5 -27 3 -33 -11 -33 -13 0 -21 16
-33 70 -15 66 -15 70 2 70 12 0 19 -9 21 -27 4 -28 4 -28 20 10 9 20 24 37 32
37 14 0 14 -4 -1 -36z m-373 -20 c0 -7 -10 -14 -22 -16 -20 -3 -23 -10 -26
-50 -3 -40 -6 -48 -23 -48 -17 0 -19 5 -13 43 3 23 7 48 10 55 2 7 -5 12 -16
12 -13 0 -20 7 -20 18 0 17 5 18 55 9 32 -6 55 -16 55 -23z m242 16 c5 0 8 -6
5 -12 -2 -7 -13 -13 -25 -13 -27 0 -32 -19 -6 -24 46 -8 61 -61 23 -81 -26
-15 -69 -5 -69 16 0 12 7 14 30 9 42 -9 40 18 -2 30 -42 13 -49 46 -16 69 13
9 29 14 36 11 8 -3 18 -5 24 -5z m-152 -12 c0 -7 11 -39 24 -70 23 -55 23 -58
5 -58 -11 0 -19 5 -19 10 0 14 -36 13 -60 -2 -36 -23 -34 -5 9 105 11 27 41
38 41 15z"/>
</g>
</svg>
